# xmcd CD database file
#
# Track frame offsets:
#	150
#	16969
#	34631
#	51531
#	68505
#	93667
#	114586
#	133412
#	148364
#	173292
#	191817
#
# Disc length: 2956 seconds
#
# Revision: 6
# Processed by: cddbd v1.5.2PL0 Copyright (c) Steve Scherf et al.
# Submitted via: jetAudio 7
#
DISCID=a00b8a0b
DTITLE=Bernard Allison - Across The Water
DYEAR=2000
DGENRE=Blues
TTITLE0=The River's Rising
TTITLE1=Meet Me Half Way
TTITLE2=I Just Came Back To Say Goodbye
TTITLE3=I Want To Get You Back
TTITLE4=Love Is Free
TTITLE5=Coming Back (Across The Water)
TTITLE6=Change Your Way Of Living
TTITLE7=Feels Kinda Funny
TTITLE8=Work It Out
TTITLE9=There's No Higher Love
TTITLE10=I've Been Down
EXTD=YEAR: 2000
EXTT0=
EXTT1=
EXTT2=
EXTT3=
EXTT4=
EXTT5=
EXTT6=
EXTT7=
EXTT8=
EXTT9=
EXTT10=
PLAYORDER=
